<?xml version="1.0" encoding="UTF-8"?>
<svg xmlns="http://www.w3.org/2000/svg" xmlns:xlink="http://www.w3.org/1999/xlink" width="512" height="512" viewBox="0 0 60 60" version="1.1"><!-- Generator: Sketch 51.3 (57544) - http://www.bohemiancoding.com/sketch --><title>029 - Peice of the puzzle</title><desc>Created with Sketch.</desc><defs/><g id="Page-1" stroke="none" stroke-width="1" fill="none" fill-rule="evenodd"><g id="029---Peice-of-the-puzzle" transform="translate(0.000000, -1.000000)" fill-rule="nonzero"><path d="M57.65,26.35 L36.03,47.98 L33.82,46.74 L54.18,26.37 C54.3705714,26.1755782 54.3705714,25.8644218 54.18,25.67 L46.53,18.02 C46.4450336,17.9376135 46.3548468,17.8607877 46.26,17.79 C47.3853088,16.9198278 48.9791773,17.0093231 50,18 L57.65,25.65 C57.8405714,25.8444218 57.8405714,26.1555782 57.65,26.35 Z" id="Shape" fill="#C81E1E"/><path d="M54.18,26.37 L33.82,46.74 L23.5,40.97 L9.61,27.08 C9.41942856,26.8855782 9.41942856,26.5744218 9.61,26.38 L17.51,18.49 C18.6461543,17.3847609 18.6729981,15.56833 17.57,14.43 L17.49,14.35 C17.1870356,14.0598363 16.7611174,13.9365442 16.35,14.02 C14.0761055,14.4060495 11.8000603,13.3476089 10.63,11.36 C9.57254571,9.52331493 9.61873851,7.25216881 10.75,5.46 C11.5063307,4.24984035 12.6636867,3.34377572 14.02,2.9 C16.0299563,2.23229965 18.2445885,2.75020664 19.75,4.24 C21.0152787,5.51737241 21.5819809,7.32932828 21.27,9.1 C21.1957819,9.49496257 21.3104678,9.9019125 21.58,10.2 L21.69,10.3 C21.7727689,10.3847708 21.8631485,10.4617608 21.96,10.53 C23.115213,11.4045776 24.7412968,11.2801543 25.75,10.24 L32.26,3.74 L33.65,2.35 C33.8444218,2.15942856 34.1555782,2.15942856 34.35,2.35 L42,10 C43.1029981,11.13833 43.0761543,12.9547609 41.94,14.06 L41.83,14.17 C41.5350659,14.4537859 41.1243707,14.5832844 40.72,14.52 C38.9140421,14.2776081 37.0983719,14.89146 35.81,16.18 C34.5418137,17.404902 33.9098815,19.1465143 34.0975078,20.899648 C34.2851342,22.6527817 35.271319,24.2212176 36.77,25.15 C37.1419524,25.3801289 37.5418808,25.561609 37.96,25.69 C39.5423714,26.1731664 41.2556987,25.9585458 42.67,25.1 C44.6751835,23.8952895 45.7809152,21.6210896 45.49,19.3 C45.42715,18.881732 45.5598687,18.4577696 45.85,18.15 L45.94,18.06 C46.0394954,17.9618289 46.1464856,17.871556 46.26,17.79 C46.3548468,17.8607877 46.4450336,17.9376135 46.53,18.02 L54.18,25.67 C54.3705714,25.8644218 54.3705714,26.1755782 54.18,26.37 Z" id="Shape" fill="#F44335"/><path d="M57.68,46.57 L38.94,57.98 C37.8431695,58.647384 36.5839153,59.000252 35.3,59 L10,59 L9.76,58.95 C9.9164476,58.6577104 9.99885274,58.3315234 10,58 L10,37 L12.8,37 C13.2523606,36.9968567 13.7041153,37.0336663 14.15,37.11 C15.7421814,37.3422769 17.2437007,37.9946612 18.5,39 C18.9223461,39.3366246 19.3741741,39.6344964 19.85,39.89 C21.185045,40.616206 22.6802252,40.9977348 24.2,41 L29.43,41 C31.1882968,40.9974333 32.8181205,41.9206201 33.72,43.43 L33.81,43.58 C34.3777049,44.5295756 34.4772673,45.6874491 34.08,46.72 C33.9035954,47.2015157 33.6236797,47.6384574 33.26,48 L35.61,48 C36.0419935,48.0002223 36.4710725,47.9292722 36.88,47.79 L55.39,41.62 C55.41,41.61 55.44,41.61 55.46,41.6 C56.563511,41.2712359 57.7551868,41.6618186 58.45,42.58 L58.45,42.59 C58.9149441,43.2071961 59.0965512,43.9925179 58.9497758,44.7511752 C58.8030004,45.5098325 58.3415928,46.170752 57.68,46.57 Z" id="Shape" fill="#DFC49C"/><path d="M54.68,45.57 L35.94,56.98 C34.8431695,57.647384 33.5839153,58.000252 32.3,58 L7,58 L6.76,57.95 C6.9164476,57.6577104 6.99885274,57.3315234 7,57 L7,36 L9.8,36 C11.3197748,36.0022652 12.814955,36.383794 14.15,37.11 C14.6258259,37.3655036 15.0776539,37.6633754 15.5,38 C16.7562993,39.0053388 18.2578186,39.6577231 19.85,39.89 C20.2958847,39.9663337 20.7476394,40.0031433 21.2,40 L26.43,40 C27.5120152,39.9989871 28.5649956,40.3499806 29.43,41 C29.9476502,41.389612 30.3855936,41.8750842 30.72,42.43 L30.81,42.58 C31.662769,44.0049594 31.4359838,45.8274872 30.26,47 L32.61,47 C33.0419935,47.0002223 33.4710725,46.9292722 33.88,46.79 L34.08,46.72 C33.9035954,47.2015157 33.6236797,47.6384574 33.26,48 L35.61,48 C36.0419935,48.0002223 36.4710725,47.9292722 36.88,47.79 L55.39,41.62 C55.41,41.61 55.44,41.61 55.46,41.6 C55.9209036,42.2177884 56.0990655,43.001673 55.9504695,43.757989 C55.8018734,44.514305 55.3403783,45.1725138 54.68,45.57 Z" id="Shape" fill="#FFE0B2"/><path d="M8,34 L3,34 C1.3451972,34.0049422 0.00494220167,35.3451972 0,37 L0,58 C0.00494220167,59.6548028 1.3451972,60.9950578 3,61 L8,61 C9.10363312,60.9990248 10.1176139,60.3921727 10.64,59.42 C10.8779729,58.984656 11.0018227,58.4961373 11,58 L11,37 C10.9950578,35.3451972 9.6548028,34.0049422 8,34 Z" id="Shape" fill="#0377BC"/><path d="M4,34 L3,34 C1.3451972,34.0049422 0.00494220167,35.3451972 -4.4408921e-16,37 L-4.4408921e-16,58 C0.00494220167,59.6548028 1.3451972,60.9950578 3,61 L4,61 C5.10363312,60.9990248 6.11761389,60.3921727 6.64,59.42 C6.87797293,58.984656 7.00182274,58.4961373 7,58 L7,37 C6.9950578,35.3451972 5.6548028,34.0049422 4,34 Z" id="Shape" fill="#02A9F4"/><path d="M8,61 L3,61 C1.34314575,61 2.02906125e-16,59.6568542 0,58 L0,37 C-2.02906125e-16,35.3431458 1.34314575,34 3,34 L8,34 C9.65685425,34 11,35.3431458 11,37 L11,58 C11,59.6568542 9.65685425,61 8,61 Z M3,36 C2.44771525,36 2,36.4477153 2,37 L2,58 C2,58.5522847 2.44771525,59 3,59 L8,59 C8.55228475,59 9,58.5522847 9,58 L9,37 C9,36.4477153 8.55228475,36 8,36 L3,36 Z" id="Shape" fill="#000000"/><path d="M35.3,60 L10,60 C9.44771525,60 9,59.5522847 9,59 C9,58.4477153 9.44771525,58 10,58 L35.3,58 C36.4005669,58.0000007 37.4799324,57.6972941 38.42,57.125 L57.165,45.715 C57.584108,45.459851 57.8759239,45.0395221 57.9684859,44.5576665 C58.0610479,44.0758109 57.945741,43.5772757 57.651,43.185 C57.631,43.157 57.611,43.129 57.594,43.1 C57.1353064,42.5490973 56.3837007,42.3393005 55.706,42.573 L37.2,48.744 C36.6882444,48.9142664 36.1523365,49.000714 35.613,49 L26.725,49 C25.1451922,48.9984804 23.6005346,49.4662632 22.287,50.344 L21.555,50.832 C21.0954991,51.138518 20.474518,51.0145009 20.168,50.555 C19.861482,50.0954991 19.9854991,49.474518 20.445,49.168 L21.178,48.68 C22.8197376,47.5828413 24.7503972,46.9981093 26.725,47 L35.613,47 C35.9358837,47.0000382 36.2566634,46.9480382 36.563,46.846 L55.073,40.676 C56.5993928,40.1636197 58.2823156,40.6876436 59.248,41.976 C59.2688086,42.0032981 59.2881686,42.0316705 59.306,42.061 C59.9045968,42.8901751 60.131373,43.9309547 59.932,44.934 C59.7316581,45.9711163 59.1026544,46.8753999 58.2,47.424 L39.459,58.833 C38.206212,59.5967144 36.767221,60.00049 35.3,60 Z" id="Shape" fill="#000000"/><path d="M33.265,49 C32.855913,49.0004912 32.4877797,48.7517627 32.3355827,48.3720411 C32.1833857,47.9923195 32.2778205,47.5581881 32.574,47.276 C33.4110433,46.4244158 33.5660981,45.1144703 32.951,44.091 L32.861,43.942 C32.1355726,42.740263 30.8357094,42.0040908 29.432,42 L24.2,42 C21.9010766,41.9969613 19.6710724,41.2147325 17.874,39.781 C16.4327944,38.6305176 14.6440923,38.002674 12.8,38 L10,38 C9.44771525,38 9,37.5522847 9,37 C9,36.4477153 9.44771525,36 10,36 L12.8,36 C15.0989234,36.0030387 17.3289276,36.7852675 19.126,38.219 C20.5672056,39.3694824 22.3559077,39.997326 24.2,40 L29.431,40 C31.5368651,40.006496 33.4869448,41.1105936 34.576,42.913 L34.666,43.062 C35.7569639,44.8807454 35.4682164,47.2088751 33.966,48.706 C33.9321153,48.7390665 33.896033,48.7698033 33.858,48.798 C33.6875135,48.9279419 33.4793577,48.9988483 33.265,49 Z" id="Shape" fill="#000000"/><path d="M36.03,48.98 C35.6256041,48.9799137 35.2610659,48.7362725 35.106322,48.3626546 C34.9515781,47.9890366 35.0370921,47.5589943 35.323,47.273 L56.586,26 L49.293,18.707 C48.5435166,17.9987001 47.3636071,18.0254554 46.647,18.767 L46.553,18.861 C46.4859416,18.9535646 46.460568,19.0699204 46.483,19.182 C46.82146,21.887594 45.5348738,24.5387533 43.2,25.947 C41.0725011,27.2562022 38.3942096,27.2766178 36.247,26 C34.5126924,24.9505832 33.358467,23.1607777 33.118,21.148 C32.8735857,19.0398732 33.6148975,16.9368146 35.1272313,15.4479278 C36.6395651,13.9590411 38.7539492,13.250678 40.858,13.528 C40.9514646,13.5428189 41.0469132,13.5185952 41.122,13.461 L41.235,13.35 C41.9772056,12.6313289 42.0017477,11.4488475 41.29,10.7 L34,3.414 L26.457,10.948 C25.7335132,11.6784791 24.7529799,12.0969643 23.725,12.114 L23.664,12.114 C22.6582233,12.1185344 21.6925793,11.7198146 20.983,11.007 L20.91,10.942 C20.3940704,10.4178597 20.1599136,9.67859338 20.28,8.953 C20.5416976,7.53455011 20.1110164,6.07635299 19.1206556,5.02770086 C18.1302949,3.97904872 16.6990839,3.46576498 15.268,3.646 C13.7499927,3.82931111 12.3990003,4.69633299 11.6,6 C10.6673942,7.47282642 10.6265924,9.3408574 11.494,10.853 C12.4575102,12.4837418 14.3262829,13.3521247 16.194,13.037 C16.9205536,12.9030772 17.6668033,13.1314297 18.194,13.649 L18.273,13.728 C18.9971572,14.451605 19.3944836,15.4395029 19.373,16.463 C19.3605584,17.4914307 18.9455497,18.4740249 18.217,19.2 L10.675,26.73 L24.207,40.263 C24.5859722,40.6553789 24.5805524,41.2790848 24.1948186,41.6648186 C23.8090848,42.0505524 23.1853789,42.0559722 22.793,41.677 L8.553,27.437 C8.36522296,27.2494317 8.25971334,26.9949092 8.25971334,26.7295 C8.25971334,26.4640908 8.36522296,26.2095683 8.553,26.022 L16.803,17.783 C17.1647857,17.425163 17.3719293,16.9397938 17.38,16.431 C17.3907917,15.9473106 17.2041194,15.4800881 16.863,15.137 L16.783,15.057 C16.70464,15.0025815 16.6068408,14.9840396 16.514,15.006 C13.8352869,15.461899 11.1532498,14.216568 9.773,11.876 C8.52161839,9.71616313 8.57052291,7.04066228 9.9,4.928 C11.0260249,3.10910489 12.9219539,1.90494872 15.047,1.659 C17.0981645,1.40953013 19.1461883,2.14695089 20.567507,3.6467389 C21.9888258,5.14652691 22.6152309,7.23118693 22.256,9.266 C22.238264,9.34822012 22.2537184,9.43411777 22.299,9.505 L22.36,9.558 C22.6946825,9.93916715 23.186662,10.1443739 23.693,10.114 C24.2016222,10.1041363 24.6861832,9.89559559 25.043,9.533 L33.293,1.292 C33.6834999,0.901618062 34.3165001,0.901618062 34.707,1.292 L42.707,9.292 C44.1931854,10.8237138 44.1664022,13.2672302 42.647,14.766 L42.535,14.877 C42.0225209,15.3778448 41.3064054,15.6121158 40.597,15.511 C39.105212,15.3142957 37.6059968,15.8159154 36.532968,16.8707771 C35.4599392,17.9256389 34.9327951,19.4160709 35.104,20.911 C35.2631764,22.3209569 36.0732374,23.5750898 37.293,24.3 C38.7952616,25.1871375 40.665702,25.1674932 42.149,24.249 C43.8143259,23.2478133 44.7349481,21.3607337 44.499,19.432 C44.395166,18.7062268 44.6324969,17.9731953 45.142,17.446 L45.237,17.352 C46.7332772,15.8376569 49.1697398,15.8100053 50.7,17.29 L58.7,25.29 C59.0903819,25.6804999 59.0903819,26.3135001 58.7,26.704 L36.73,48.684 C36.5447145,48.8709449 36.2931954,48.9773016 36.03,48.98 Z" id="Shape" fill="#000000"/></g></g></svg>
