<svg height="512pt" viewBox="0 0 512 512" width="512pt" xmlns="http://www.w3.org/2000/svg"><path d="m512 60v271l-37.5 30h-441.800781l-32.699219-30v-271zm0 0" fill="#47568c"/><path d="m512 60v271l-37.5 30h-218.5v-301zm0 0" fill="#2c3b73"/><path d="m30 90h452v271h-452zm0 0" fill="#4bb9ec"/><path d="m256 90h226v271h-226zm0 0" fill="#0095ff"/><path d="m330.097656 410.800781-30 91h-88.195312l-30-91zm0 0" fill="#47568c"/><path d="m330.097656 410.800781-30 91h-44.097656v-91zm0 0" fill="#2c3b73"/><path d="m121 482h270v30h-270zm0 0" fill="#61729b"/><path d="m256 482h135v30h-135zm0 0" fill="#47568c"/><path d="m61 0h390v376h-390zm0 0" fill="#f2f2fc"/><path d="m256 0h195v376h-195zm0 0" fill="#d8d8fc"/><path d="m121 30v90h270v-90zm0 0" fill="#ff641a"/><path d="m256 30h135v90h-135zm0 0" fill="#f03800"/><g fill="#d8d8fc"><path d="m121 150h270v30h-270zm0 0"/><path d="m121 211h270v30h-270zm0 0"/><path d="m121 271h270v30h-270zm0 0"/></g><path d="m256 150h135v30h-135zm0 0" fill="#a3a3d1"/><path d="m256 211h135v30h-135zm0 0" fill="#a3a3d1"/><path d="m256 271h135v30h-135zm0 0" fill="#a3a3d1"/><path d="m0 331h512v90h-512zm0 0" fill="#61729b"/><path d="m256 331h256v90h-256zm0 0" fill="#47568c"/></svg>