<svg id="Слой_1" data-name="Слой 1" xmlns="http://www.w3.org/2000/svg" viewBox="0 0 22 22"><defs><style>.cls-1{fill:#fff;}</style></defs><title>1</title><path class="cls-1" d="M12.09,1l.22,2.43.06.67L13,4.3a7,7,0,0,1,2.77,1.61l.49.46.61-.28,2.22-1,1.07,1.85-2,1.42-.55.39.16.66a6.76,6.76,0,0,1,0,3.26l-.16.66.55.39,2,1.42-1.07,1.85-2.22-1-.61-.28-.49.46A7,7,0,0,1,13,17.71l-.65.19-.06.67L12,21H9.91l-.22-2.43-.06-.67L9,17.7a7,7,0,0,1-2.77-1.61l-.49-.46-.61.28-2.22,1L1.82,15.09l2-1.42.55-.39-.16-.66a6.76,6.76,0,0,1,0-3.26l.16-.66-.55-.39-2-1.42L2.88,5.06l2.22,1,.61.28.49-.46A7,7,0,0,1,9,4.29l.65-.19.06-.67L10,1h2.14M13,0H9L8.73,3.33a8,8,0,0,0-3.2,1.85L2.47,3.77.49,7.2,3.23,9.14a7.76,7.76,0,0,0,0,3.72L.49,14.8l2,3.43,3.05-1.41A8,8,0,0,0,8.7,18.66L9,22h4l.32-3.33a8,8,0,0,0,3.2-1.85l3.05,1.41,2-3.43-2.73-1.94a7.76,7.76,0,0,0,0-3.72L21.51,7.2l-2-3.43L16.48,5.18A8,8,0,0,0,13.3,3.34L13,0Z"/><path class="cls-1" d="M11,8a3,3,0,1,1-3,3,3,3,0,0,1,3-3m0-1a4,4,0,1,0,4,4,4,4,0,0,0-4-4Z"/></svg>