<svg height="512pt" viewBox="0 -5 512 511" width="512pt" xmlns="http://www.w3.org/2000/svg"><path d="m114.34375 158.367188v216.34375h-96.433594v-19.566407c0-7.484375-3.261718-14.597656-8.933594-19.476562l-.050781-.039063c-5.664062-4.890625-8.925781-11.996094-8.925781-19.476562v-140.890625c0-7.894531 6.402344-14.289063 14.289062-14.289063 1.871094 0 3.675782.359375 5.3125 1.019532 1.808594.722656 3.4375 1.800781 4.796876 3.160156 2.59375 2.582031 4.1875 6.164062 4.1875 10.109375v-16.894531c0-7.894532 6.402343-14.296876 14.300781-14.296876 1.871093 0 3.664062.359376 5.300781 1.019532 1.808594.71875 3.4375 1.8125 4.796875 3.171875 2.582031 2.582031 4.1875 6.152343 4.1875 10.105469v-12.445313c0-7.894531 6.402344-14.285156 14.296875-14.285156 1.863281 0 3.65625.359375 5.300781 1.015625 1.8125.722656 3.449219 1.800781 4.808594 3.160156 2.582031 2.585938 4.179687 6.167969 4.179687 10.109375v12.445313c0-7.894532 6.402344-14.296876 14.296876-14.296876 3.953124 0 7.515624 1.59375 10.109374 4.1875 2.582032 2.585938 4.179688 6.160157 4.179688 10.109376zm0 0" fill="#fdd7bd"/><path d="m114.34375 192.710938v114.460937l-37.429688-1.25c-6.648437-.222656-11.921874-5.675781-11.921874-12.324219 0-6.414062 3.894531-12.1875 9.832031-14.597656l18.601562-7.554688c7.050781-2.863281 11.652344-9.71875 11.652344-17.3125v-48.042968c0-6.125 3.851563-11.34375 9.265625-13.378906zm0 0" fill="#fac5aa"/><path d="m74.257812 373.09375v-72.289062c0-6.414063 3.886719-12.1875 9.832032-14.601563l18.601562-7.554687c7.046875-2.863282 11.65625-9.710938 11.65625-17.3125v-51.78125c0-7.894532 6.398438-14.292969 14.292969-14.292969 7.890625 0 14.292969 6.398437 14.292969 14.292969v106.183593c0 7.71875-3.46875 15.027344-9.449219 19.90625-5.980469 4.878907-9.449219 12.191407-9.449219 19.90625v19.164063" fill="#fdd7bd"/><path d="m145.976562 385.777344v115.257812h-145.976562v-115.257812c0-6.113282 4.949219-11.066406 11.054688-11.066406h123.855468c6.113282 0 11.066406 4.953124 11.066406 11.066406zm0 0" fill="#87dbff"/><path d="m145.976562 385.777344v50.128906h-145.976562v-50.128906c0-6.113282 4.949219-11.066406 11.054688-11.066406h123.855468c6.113282 0 11.066406 4.953124 11.066406 11.066406zm0 0" fill="#6fc7ff"/><g fill="#fac5aa"><path d="m28.585938 175.261719v62.480469h-2.089844c-3.808594 0-6.898438-3.085938-6.898438-6.894532v-68.855468c1.8125.722656 3.4375 1.800781 4.796875 3.160156 2.59375 2.585937 4.191407 6.167968 4.191407 10.109375zm0 0"/><path d="m57.171875 158.367188v79.375h-2.089844c-3.808593 0-6.898437-3.085938-6.898437-6.894532v-85.757812c1.8125.722656 3.4375 1.8125 4.796875 3.171875 2.585937 2.582031 4.191406 6.15625 4.191406 10.105469zm0 0"/><path d="m85.757812 145.925781v91.816407h-2.089843c-3.808594 0-6.898438-3.085938-6.898438-6.894532v-98.191406c1.8125.71875 3.449219 1.800781 4.808594 3.160156 2.582031 2.582032 4.179687 6.164063 4.179687 10.109375zm0 0"/></g><path d="m480.367188 158.367188v216.34375h-96.429688v-19.566407c0-7.484375-3.265625-14.597656-8.9375-19.476562l-.050781-.039063c-5.664063-4.890625-8.925781-11.992187-8.925781-19.476562v-140.890625c0-7.894531 6.402343-14.289063 14.289062-14.289063 1.871094 0 3.675781.359375 5.3125 1.019532 1.8125.722656 3.4375 1.800781 4.796875 3.160156 2.59375 2.582031 4.1875 6.164062 4.1875 10.109375v-16.894531c0-7.894532 6.40625-14.296876 14.300781-14.296876 1.871094 0 3.664063.359376 5.300782 1.019532 1.8125.71875 3.4375 1.8125 4.796874 3.171875 2.582032 2.582031 4.1875 6.152343 4.1875 10.105469v-12.445313c0-7.894531 6.402344-14.285156 14.296876-14.285156 1.863281 0 3.65625.359375 5.304687 1.015625 1.808594.722656 3.445313 1.800781 4.804687 3.160156 2.585938 2.585938 4.179688 6.167969 4.179688 10.109375v12.445313c0-7.894532 6.402344-14.296876 14.296875-14.296876 3.953125 0 7.515625 1.59375 10.109375 4.1875 2.585938 2.585938 4.179688 6.160157 4.179688 10.109376zm0 0" fill="#fdd7bd"/><path d="m480.367188 192.710938v114.460937l-37.429688-1.25c-6.644531-.222656-11.917969-5.675781-11.917969-12.324219 0-6.414062 3.890625-12.1875 9.828125-14.597656l18.601563-7.554688c7.050781-2.863281 11.652343-9.71875 11.652343-17.3125v-48.042968c0-6.125 3.851563-11.34375 9.265626-13.378906zm0 0" fill="#fac5aa"/><path d="m440.285156 373.09375v-72.289062c0-6.414063 3.886719-12.1875 9.828125-14.601563l18.601563-7.554687c7.046875-2.863282 11.65625-9.710938 11.65625-17.3125v-51.78125c0-7.894532 6.398437-14.292969 14.292968-14.292969 7.894532 0 14.292969 6.398437 14.292969 14.292969v106.183593c0 7.71875-3.46875 15.027344-9.449219 19.90625-5.980468 4.878907-9.449218 12.191407-9.449218 19.90625v19.164063" fill="#fdd7bd"/><path d="m512 385.777344v115.257812h-145.976562v-115.257812c0-6.113282 4.953124-11.066406 11.054687-11.066406h123.855469c6.117187 0 11.066406 4.953124 11.066406 11.066406zm0 0" fill="#87dbff"/><path d="m512 385.777344v50.128906h-145.976562v-50.128906c0-6.113282 4.953124-11.066406 11.054687-11.066406h123.855469c6.117187 0 11.066406 4.953124 11.066406 11.066406zm0 0" fill="#6fc7ff"/><path d="m394.609375 175.261719v62.480469h-2.089844c-3.808593 0-6.894531-3.085938-6.894531-6.894532v-68.855468c1.8125.722656 3.4375 1.800781 4.796875 3.160156 2.59375 2.585937 4.1875 6.167968 4.1875 10.109375zm0 0" fill="#fac5aa"/><path d="m423.195312 158.367188v79.375h-2.089843c-3.808594 0-6.894531-3.085938-6.894531-6.894532v-85.757812c1.808593.722656 3.4375 1.8125 4.796874 3.171875 2.582032 2.582031 4.1875 6.15625 4.1875 10.105469zm0 0" fill="#fac5aa"/><path d="m451.78125 145.925781v91.816407h-2.089844c-3.808594 0-6.894531-3.085938-6.894531-6.894532v-98.191406c1.808594.71875 3.445313 1.800781 4.804687 3.160156 2.585938 2.582032 4.179688 6.164063 4.179688 10.109375zm0 0" fill="#fac5aa"/><path d="m297.476562 27.234375v216.339844h-96.429687v-19.566407c0-7.484374-3.261719-14.597656-8.933594-19.476562l-.054687-.042969c-5.660156-4.886719-8.921875-11.992187-8.921875-19.472656v-140.890625c0-7.894531 6.402343-14.289062 14.285156-14.289062 1.875 0 3.675781.359374 5.3125 1.019531 1.8125.722656 3.4375 1.800781 4.796875 3.160156 2.59375 2.585937 4.191406 6.167969 4.191406 10.109375v-16.890625c0-7.894531 6.402344-14.300781 14.296875-14.300781 1.875 0 3.664063.363281 5.300781 1.019531 1.8125.722656 3.4375 1.8125 4.796876 3.171875 2.585937 2.585938 4.191406 6.15625 4.191406 10.109375v-12.445313c0-7.894531 6.402344-14.289062 14.296875-14.289062 1.863281 0 3.652343.359375 5.300781 1.019531 1.8125.71875 3.449219 1.800781 4.808594 3.160157 2.582031 2.582031 4.175781 6.164062 4.175781 10.105468v12.445313c0-7.894531 6.40625-14.296875 14.300781-14.296875 3.953125 0 7.511719 1.597656 10.105469 4.191406 2.585937 2.582031 4.179687 6.15625 4.179687 10.109375zm0 0" fill="#fdd7bd"/><path d="m297.476562 61.570312v114.464844l-37.425781-1.25c-6.648437-.222656-11.921875-5.675781-11.921875-12.324218 0-6.414063 3.890625-12.1875 9.832032-14.597657l18.601562-7.554687c7.050781-2.863282 11.652344-9.714844 11.652344-17.3125v-48.042969c0-6.125 3.847656-11.34375 9.261718-13.382813zm0 0" fill="#fac5aa"/><path d="m257.394531 241.957031v-72.292969c0-6.410156 3.886719-12.183593 9.828125-14.597656l18.601563-7.554687c7.046875-2.863281 11.65625-9.710938 11.65625-17.316407v-51.777343c0-7.894531 6.402343-14.292969 14.292969-14.292969 7.894531 0 14.292968 6.398438 14.292968 14.292969v106.183593c0 7.71875-3.46875 15.027344-9.449218 19.910157-5.976563 4.878906-9.445313 12.1875-9.445313 19.90625v19.160156" fill="#fdd7bd"/><path d="m329.109375 254.640625v246.394531h-145.972656v-246.394531c0-6.113281 4.949219-11.066406 11.054687-11.066406h123.855469c6.113281 0 11.0625 4.953125 11.0625 11.066406zm0 0" fill="#87dbff"/><path d="m329.109375 254.640625v50.128906h-145.972656v-50.128906c0-6.113281 4.949219-11.066406 11.054687-11.066406h123.855469c6.113281 0 11.0625 4.953125 11.0625 11.066406zm0 0" fill="#6fc7ff"/><path d="m211.722656 44.125v62.484375h-2.089844c-3.8125 0-6.898437-3.089844-6.898437-6.898437v-68.855469c1.8125.722656 3.4375 1.800781 4.796875 3.160156 2.59375 2.585937 4.191406 6.167969 4.191406 10.109375zm0 0" fill="#fac5aa"/><path d="m240.308594 27.234375v79.375h-2.089844c-3.8125 0-6.898438-3.089844-6.898438-6.898437v-85.757813c1.8125.722656 3.4375 1.8125 4.796876 3.171875 2.582031 2.582031 4.191406 6.15625 4.191406 10.109375zm0 0" fill="#fac5aa"/><path d="m268.890625 14.789062v91.820313h-2.089844c-3.808593 0-6.894531-3.089844-6.894531-6.898437v-98.191407c1.8125.71875 3.445312 1.800781 4.804688 3.160157 2.585937 2.582031 4.179687 6.164062 4.179687 10.109374zm0 0" fill="#fac5aa"/></svg>